<svg width="375" height="487" viewBox="0 0 375 487" fill="none" xmlns="http://www.w3.org/2000/svg">
<path d="M307.909 229.522V510H388.953V382.421H378.818V283.735H355.931V232.703H349.187V229.522H307.909Z" fill="#CCCCCC"/>
<g filter="url(#filter0_d_5_130)">
<path d="M307.945 222.815H236.661V505.813H307.945V222.815Z" fill="white"/>
</g>
<path d="M298.641 217.038H245.967V222.815H298.641V217.038Z" fill="#CCCCCC"/>
<path d="M269.123 234.177H244.557V239.124H269.123V234.177Z" fill="#CCCCCC"/>
<path d="M269.123 252.866H244.557V257.813H269.123V252.866Z" fill="#CCCCCC"/>
<path d="M269.123 271.556H244.557V276.503H269.123V271.556Z" fill="#CCCCCC"/>
<path d="M269.123 290.244H244.557V295.191H269.123V290.244Z" fill="#CCCCCC"/>
<path d="M269.123 308.933H244.557V313.88H269.123V308.933Z" fill="#CCCCCC"/>
<path d="M269.123 327.622H244.557V332.569H269.123V327.622Z" fill="#CCCCCC"/>
<path d="M269.123 346.312H244.557V351.259H269.123V346.312Z" fill="#CCCCCC"/>
<path d="M301.643 234.177H277.078V239.124H301.643V234.177Z" fill="#CCCCCC"/>
<path d="M301.643 252.866H277.078V257.813H301.643V252.866Z" fill="#CCCCCC"/>
<path d="M301.643 271.556H277.078V276.503H301.643V271.556Z" fill="#CCCCCC"/>
<path d="M301.643 290.244H277.078V295.191H301.643V290.244Z" fill="#CCCCCC"/>
<path d="M301.643 308.933H277.078V313.88H301.643V308.933Z" fill="#CCCCCC"/>
<path d="M301.643 327.622H277.078V332.569H301.643V327.622Z" fill="#CCCCCC"/>
<path d="M301.643 346.312H277.078V351.259H301.643V346.312Z" fill="#CCCCCC"/>
<path d="M351.472 236.414H307.909V239.878H351.472V236.414Z" fill="white"/>
<path d="M351.472 245.664H307.909V249.129H351.472V245.664Z" fill="white"/>
<path d="M351.472 254.915H307.909V258.38H351.472V254.915Z" fill="white"/>
<path d="M351.472 264.153H307.909V267.63H351.472V264.153Z" fill="white"/>
<path d="M351.472 273.404H307.909V276.88H351.472V273.404Z" fill="white"/>
<path d="M373.585 288.367H307.909V291.832H373.585V288.367Z" fill="white"/>
<path d="M373.585 298.551H307.909V302.028H373.585V298.551Z" fill="white"/>
<path d="M373.585 308.748H307.909V312.212H373.585V308.748Z" fill="white"/>
<path d="M373.585 318.932H307.909V322.408H373.585V318.932Z" fill="white"/>
<path d="M373.585 329.128H307.909V332.593H373.585V329.128Z" fill="white"/>
<path d="M373.585 339.312H307.909V342.777H373.585V339.312Z" fill="white"/>
<path d="M373.585 349.509H307.909V352.974H373.585V349.509Z" fill="white"/>
<path d="M373.585 359.693H307.909V363.157H373.585V359.693Z" fill="white"/>
<path d="M373.585 369.878H307.909V373.354H373.585V369.878Z" fill="white"/>
<path d="M383.339 389.828H307.909V393.292H383.339V389.828Z" fill="white"/>
<path d="M383.339 400.455H307.909V403.92H383.339V400.455Z" fill="white"/>
<path d="M383.339 411.069H307.909V414.545H383.339V411.069Z" fill="white"/>
<path d="M383.339 421.696H307.909V425.16H383.339V421.696Z" fill="white"/>
<path d="M383.339 432.322H307.909V435.787H383.339V432.322Z" fill="white"/>
<path d="M383.339 442.936H307.909V446.413H383.339V442.936Z" fill="white"/>
<path d="M383.339 453.563H307.909V457.027H383.339V453.563Z" fill="white"/>
<path d="M383.339 464.189H307.909V467.653H383.339V464.189Z" fill="white"/>
<path d="M383.339 474.816H307.909V478.28H383.339V474.816Z" fill="white"/>
<path d="M383.339 485.43H307.909V488.907H383.339V485.43Z" fill="white"/>
<path d="M228.982 281.065V505.182H152.048V238.718L193.159 261.349L228.982 281.065Z" fill="#CCCCCC"/>
<path d="M186.102 287.21H156.566V293.288H186.102V287.21Z" fill="white"/>
<path d="M208.197 287.21H202.12V293.288H208.197V287.21Z" fill="white"/>
<path d="M224.468 287.21H218.39V293.288H224.468V287.21Z" fill="white"/>
<path d="M208.197 309.237H202.12V315.315H208.197V309.237Z" fill="white"/>
<path d="M224.468 309.237H218.39V315.315H224.468V309.237Z" fill="white"/>
<path d="M208.197 331.264H202.12V337.341H208.197V331.264Z" fill="white"/>
<path d="M224.468 331.264H218.39V337.341H224.468V331.264Z" fill="white"/>
<path d="M208.197 353.29H202.12V359.367H208.197V353.29Z" fill="white"/>
<path d="M224.468 353.29H218.39V359.367H224.468V353.29Z" fill="white"/>
<path d="M208.197 375.317H202.12V381.394H208.197V375.317Z" fill="white"/>
<path d="M224.468 375.317H218.39V381.394H224.468V375.317Z" fill="white"/>
<path d="M208.197 397.344H202.12V403.421H208.197V397.344Z" fill="white"/>
<path d="M208.197 419.37H202.12V425.447H208.197V419.37Z" fill="white"/>
<path d="M186.102 309.237H156.566V315.315H186.102V309.237Z" fill="white"/>
<path d="M86.0608 212.007H39.9997V504.116H86.0608V212.007Z" fill="white"/>
<path d="M40 212H-6.06119V504.108H40V212Z" fill="#CCCCCC"/>
<path d="M65.0096 246.333H73.1734V220.481H65.0096V246.333Z" fill="#CCCCCC"/>
<path d="M64.9974 317.087H73.1612V291.235H64.9974V317.087Z" fill="#CCCCCC"/>
<path d="M50.8678 280.65H59.0317V254.797H50.8678V280.65Z" fill="#CCCCCC"/>
<path d="M50.8567 353.218H59.0205V327.365H50.8567V353.218Z" fill="#CCCCCC"/>
<path d="M50.8434 425.786H59.0073V399.933H50.8434V425.786Z" fill="white"/>
<path d="M50.8322 498.353H58.9961V472.501H50.8322V498.353Z" fill="white"/>
<path d="M22.3168 246.326H30.4806L30.4806 220.473H22.3168L22.3168 246.326Z" fill="white"/>
<path d="M22.3056 317.08H30.4694L30.4694 291.228H22.3056L22.3056 317.08Z" fill="white"/>
<path d="M22.2934 387.834H30.4572L30.4572 361.981H22.2934L22.2934 387.834Z" fill="white"/>
<path d="M22.2822 458.587H30.446L30.446 432.735H22.2822L22.2822 458.587Z" fill="white"/>
<path d="M8.17605 280.643H16.3399L16.3399 254.79H8.17605L8.17605 280.643Z" fill="white"/>
<path d="M8.16385 353.211H16.3277L16.3277 327.358H8.16385L8.16385 353.211Z" fill="white"/>
<path d="M8.15265 425.779H16.3165L16.3165 399.926H8.15265L8.15265 425.779Z" fill="white"/>
<g filter="url(#filter1_d_5_130)">
<path d="M190.501 333.28H88.7855V504.111H190.501V333.28Z" fill="white"/>
</g>
<path d="M180.011 332.779H177.548V503.61H180.011V332.779Z" fill="#CCCCCC"/>
<path d="M160.563 332.775H158.1V503.606H160.563V332.775Z" fill="#CCCCCC"/>
<path d="M141.126 332.772H138.663V503.603H141.126V332.772Z" fill="#CCCCCC"/>
<path d="M190.575 478.931H88.8598V482.313H190.575V478.931Z" fill="#CCCCCC"/>
<path d="M190.58 452.559H88.8649V455.941H190.58V452.559Z" fill="#CCCCCC"/>
<path d="M190.584 426.186H88.8689V429.569H190.584V426.186Z" fill="#CCCCCC"/>
<path d="M190.589 399.83H88.874V403.196H190.589V399.83Z" fill="#CCCCCC"/>
<path d="M190.593 373.458H88.8781V376.84H190.593V373.458Z" fill="#CCCCCC"/>
<path d="M190.597 347.086H88.8821V350.468H190.597V347.086Z" fill="#CCCCCC"/>
<path d="M83.8738 334.544H196.483V326.068H83.8738V334.544Z" fill="white"/>
<path d="M127.952 276.399H74.0688V504.12H127.952V276.399Z" fill="#CCCCCC"/>
<g filter="url(#filter2_d_5_130)">
<path d="M137.802 299.597H64.2181V504.12H137.802V299.597Z" fill="#CCCCCC"/>
</g>
<path d="M79.6586 307.255H74.1421V504.12H79.6586V307.255Z" fill="white"/>
<path d="M95.7398 307.255H90.2233V504.12H95.7398V307.255Z" fill="white"/>
<path d="M111.796 307.255H106.304V504.12H111.796V307.255Z" fill="white"/>
<path d="M127.877 307.255H122.386V504.12H127.877V307.255Z" fill="white"/>
<path d="M261.415 385.241H211.907V504.119H261.415V385.241Z" fill="#121212"/>
<path d="M226.814 389.761H215.824V393.33H226.814V389.761Z" fill="white"/>
<path d="M242.156 389.761H231.167V393.33H242.156V389.761Z" fill="white"/>
<path d="M257.499 389.761H246.509V393.33H257.499V389.761Z" fill="white"/>
<path d="M226.814 399.752H215.824V403.32H226.814V399.752Z" fill="white"/>
<path d="M242.156 399.752H231.167V403.32H242.156V399.752Z" fill="white"/>
<path d="M257.499 399.752H246.509V403.32H257.499V399.752Z" fill="white"/>
<path d="M226.814 409.742H215.824V413.311H226.814V409.742Z" fill="white"/>
<path d="M242.156 409.742H231.167V413.311H242.156V409.742Z" fill="white"/>
<path d="M257.499 409.742H246.509V413.311H257.499V409.742Z" fill="white"/>
<path d="M226.814 419.733H215.824V423.301H226.814V419.733Z" fill="white"/>
<path d="M242.156 419.733H231.167V423.301H242.156V419.733Z" fill="white"/>
<path d="M257.499 419.733H246.509V423.301H257.499V419.733Z" fill="white"/>
<path d="M226.814 429.724H215.824V433.292H226.814V429.724Z" fill="white"/>
<path d="M242.156 429.724H231.167V433.292H242.156V429.724Z" fill="white"/>
<path d="M257.499 429.724H246.509V433.292H257.499V429.724Z" fill="white"/>
<path d="M226.814 439.714H215.824V443.283H226.814V439.714Z" fill="white"/>
<path d="M242.156 439.714H231.167V443.283H242.156V439.714Z" fill="white"/>
<path d="M257.499 439.714H246.509V443.283H257.499V439.714Z" fill="white"/>
<path d="M226.814 449.704H215.824V453.273H226.814V449.704Z" fill="white"/>
<path d="M242.156 449.704H231.167V453.273H242.156V449.704Z" fill="white"/>
<path d="M257.499 449.704H246.509V453.273H257.499V449.704Z" fill="white"/>
<path d="M226.814 459.695H215.824V463.263H226.814V459.695Z" fill="white"/>
<path d="M242.156 459.695H231.167V463.263H242.156V459.695Z" fill="white"/>
<path d="M257.499 459.695H246.509V463.263H257.499V459.695Z" fill="white"/>
<path d="M264.161 381.874H209.159V385.241H264.161V381.874Z" fill="#121212"/>
<path d="M294.851 6.77871C294.851 6.77871 297.797 4.27156 304.176 4.13674C311.673 3.97822 311.308 0.175304 314.204 0.0151261C318.983 -0.248988 319.645 3.03176 322.263 3.13267C329.104 3.39678 329.948 -0.0907406 335.758 2.34005C344.275 5.90283 344.449 4.4877 349.254 4.82349C351.874 5.00683 356.729 6.38695 355.908 6.77871H294.851ZM32 13.8718C32 13.8718 34.9457 11.3646 41.325 11.2298C48.8222 11.0713 48.4568 7.26834 51.3526 7.10817C56.1321 6.84405 56.7943 10.1245 59.4124 10.2257C66.2537 10.4898 67.0973 7.0023 72.9077 9.43309C81.4246 12.9959 81.5985 11.5807 86.4029 11.9165C89.0233 12.0999 93.8785 13.48 93.0569 13.8718H32ZM169.752 50C169.752 50 172.698 47.4928 179.077 47.358C186.575 47.1995 186.209 43.3966 189.105 43.2364C193.885 42.9723 194.547 46.2528 197.165 46.354C204.006 46.6181 204.85 43.1308 210.66 45.5613C219.177 49.1241 219.351 47.709 224.155 48.0448C226.776 48.2281 231.631 49.6082 230.809 50H169.752Z" fill="white"/>
<path d="M105.257 425.001C100.268 418.469 106.121 413.336 100.543 409.332C95.9905 406.063 98.5149 396.932 92.762 393.889C87.1794 390.937 89.7004 382.088 83.774 379.209C78.0515 376.429 79.1765 368.701 73.4785 368C67.7806 368.701 68.9045 376.429 63.183 379.209C57.2556 382.089 59.7766 390.937 54.195 393.889C48.4422 396.932 50.9666 406.063 46.4138 409.332C40.8356 413.335 46.6892 418.469 41.6998 425.001C37.5355 430.452 42.4521 435.533 41.5162 441.718C40.4684 448.642 49.059 446.85 49.949 452.647C50.8177 458.307 58.0672 460 62.4789 458.837C67.9283 457.399 72.5774 460 72.5774 460H75.1846C75.1846 460 79.0299 457.399 84.4793 458.837C88.891 460 95.6771 458.447 97.0092 452.647C98.1857 447.525 106.175 448.039 105.442 441.718C104.72 435.505 109.422 430.453 105.257 425.001Z" fill="#CCCCCC"/>
<path d="M105.273 425.001C100.327 418.469 106.129 413.337 100.6 409.332C96.0877 406.064 98.5898 396.932 92.8877 393.889C87.3543 390.937 89.853 382.088 83.979 379.209C78.3069 376.429 79.422 368.701 73.7743 368C68.9566 368.598 69.0565 374.306 65.6701 377.698C66.0085 381.452 65.4359 385.578 67.7993 388.011C72.5538 392.909 65.953 396.963 69.6967 404.251C72.8212 410.332 67.3588 414.506 66.9893 420.748C66.6132 427.101 58.9017 425.228 56.869 430.072C54.5667 435.557 47.6729 435.926 43.5664 434.027C42.6777 433.615 41.8177 433.34 41 433.157C41.5881 435.86 42.5523 438.654 42.0929 441.718C41.0544 448.641 49.5692 446.85 50.4513 452.647C51.3134 458.307 58.4989 460 62.8706 458.837C68.272 457.399 72.88 460 72.88 460H75.4642C75.4642 460 79.2756 457.399 84.6769 458.837C89.0486 460 95.7759 458.447 97.0963 452.647C98.2624 447.525 106.181 448.039 105.455 441.718C104.74 435.506 109.4 430.453 105.273 425.001Z" fill="#CCCCCC"/>
<g filter="url(#filter3_d_5_130)">
<path d="M105.267 425.001C100.305 418.469 106.126 413.336 100.578 409.332C96.0504 406.063 98.561 396.932 92.8394 393.889C87.2871 390.937 89.7944 382.088 83.9003 379.209C78.2088 376.429 79.3277 368.701 73.6607 368C72.7522 368.112 72.0196 368.407 71.4039 368.831C71.8281 369.189 72.3035 369.514 72.8435 369.794C78.6664 372.816 75.9442 381.601 81.4219 384.687C87.0678 387.868 84.3345 396.936 88.7812 400.313C94.23 404.451 88.2847 409.44 93.0855 416.091C97.0925 421.642 92.295 426.579 92.8595 432.808C93.434 439.146 85.5024 438.439 84.2076 443.531C82.7413 449.298 75.9554 450.687 71.5977 449.417C66.2146 447.849 62.3278 450.356 62.3278 450.356L59.7359 450.293C59.7359 450.293 55.1778 447.58 49.7246 448.887C49.1857 449.016 48.6046 449.101 48 449.141C49.1122 449.94 50.0029 450.979 50.2579 452.647C51.123 458.307 58.3331 460 62.7197 458.837C68.1396 457.399 72.7633 460 72.7633 460H75.3564C75.3564 460 79.1807 457.399 84.6006 458.837C88.9872 460 95.7375 458.447 97.0624 452.647C98.2326 447.525 106.179 448.039 105.449 441.718C104.732 435.505 109.408 430.453 105.267 425.001Z" fill="#CCCCCC"/>
</g>
<path d="M96.9586 425.097C96.9108 425.059 96.8407 425.068 96.8029 425.116L96.7996 425.121C96.3914 425.644 95.9076 426.121 95.3927 426.546C94.8755 426.971 94.3139 427.337 93.7177 427.629C93.1261 427.931 92.4821 428.112 91.8359 428.215L91.3466 428.272L90.855 428.27C90.7727 428.268 90.6915 428.271 90.6092 428.266L90.3657 428.233L90.2489 428.217C90.5236 427.598 90.7716 426.967 90.9796 426.322C91.2999 425.322 91.559 424.314 91.6858 423.253C91.6992 423.141 91.6213 423.037 91.509 423.018C91.3933 423 91.2854 423.079 91.2665 423.194L91.2643 423.206C91.1086 424.195 90.8161 425.19 90.4691 426.143C90.1199 427.1 89.6872 428.025 89.1934 428.912C88.5005 430.15 87.6764 431.309 86.7344 432.36C86.5987 432.028 86.4753 431.684 86.3685 431.34C86.2017 430.81 86.0727 430.269 85.9748 429.721C85.8736 429.174 85.8135 428.619 85.7935 428.063C85.7624 427.506 85.8035 426.948 85.8591 426.394L85.8602 426.388C85.8658 426.329 85.8247 426.276 85.7657 426.268C85.7057 426.259 85.6489 426.301 85.64 426.361C85.5577 426.925 85.4899 427.496 85.4966 428.067C85.491 428.64 85.5277 429.212 85.6067 429.779C85.6823 430.347 85.7913 430.911 85.9381 431.465C86.056 431.907 86.1895 432.338 86.3552 432.77C86.0627 433.076 85.7624 433.375 85.4499 433.658C84.7069 434.339 83.9162 434.967 83.072 435.513C82.6617 435.803 82.2157 436.04 81.7875 436.301L81.1191 436.649L80.7854 436.823L80.4429 436.979C79.0148 437.64 77.5178 438.148 75.9875 438.519L75.4759 417.228C76.5414 416.871 77.5757 416.416 78.5488 415.853C79.9279 415.039 81.1758 414.004 82.209 412.788C82.3035 412.677 82.3947 412.562 82.4859 412.447C82.7818 412.448 83.0776 412.45 83.3723 412.441L83.9662 412.391C84.1642 412.375 84.3622 412.361 84.5568 412.319L85.144 412.217C85.3397 412.184 85.5299 412.12 85.7223 412.073C86.1105 411.985 86.4786 411.828 86.8534 411.696C87.5852 411.381 88.2803 410.98 88.8987 410.479C89.5171 409.976 90.0687 409.396 90.4791 408.692C90.5091 408.639 90.4924 408.572 90.4413 408.541C90.389 408.509 90.3212 408.526 90.29 408.578L90.2845 408.588C89.8941 409.234 89.3402 409.803 88.7374 410.275C88.1302 410.749 87.4529 411.125 86.7411 411.418C86.3763 411.539 86.0193 411.684 85.6412 411.764C85.4532 411.806 85.2708 411.866 85.0795 411.894L84.509 411.984C84.3199 412.02 84.1275 412.03 83.9351 412.043L83.359 412.082C83.1632 412.084 82.9664 412.082 82.7706 412.077C83.5425 411.044 84.1831 409.917 84.6691 408.732C84.9716 408.001 85.2185 407.249 85.4132 406.485C85.6067 405.719 85.7535 404.95 85.8158 404.15C85.8224 404.056 85.7546 403.972 85.6612 403.961C85.5644 403.95 85.4777 404.019 85.4654 404.115L85.4643 404.125C85.3765 404.874 85.2018 405.634 84.9839 406.366C84.7648 407.101 84.4967 407.821 84.1764 408.515C83.5403 409.907 82.6906 411.191 81.6685 412.307C80.643 413.422 79.4297 414.347 78.1062 415.058C77.2565 415.504 76.3656 415.868 75.4492 416.153L74.9899 397.045C75.4403 397.001 75.8507 396.918 76.2689 396.804C76.7238 396.677 77.1686 396.518 77.5957 396.317C78.451 395.92 79.2362 395.358 79.8734 394.662C80.1948 394.316 80.4762 393.934 80.7142 393.528C80.8399 393.33 80.94 393.116 81.0468 392.908C81.138 392.692 81.2403 392.48 81.3126 392.258C81.6284 391.379 81.793 390.457 81.8464 389.537C81.8509 389.446 81.7841 389.367 81.6941 389.359C81.6018 389.35 81.5194 389.418 81.5105 389.512C81.4271 390.404 81.2347 391.282 80.9066 392.102C80.831 392.31 80.7265 392.505 80.6342 392.704C80.5263 392.896 80.4273 393.091 80.3027 393.272C80.0681 393.641 79.7956 393.985 79.4875 394.293C78.8769 394.913 78.1396 395.401 77.3388 395.739C76.9395 395.91 76.5225 396.042 76.1009 396.143C75.7306 396.232 75.3369 396.294 74.9721 396.318L74.7563 387.332C74.7519 387.152 74.6073 387.005 74.426 387C74.2392 386.996 74.0846 387.144 74.0801 387.332L73.6931 403.452C72.6743 403.196 71.6845 402.83 70.7536 402.344C69.6314 401.746 68.6016 400.967 67.7296 400.026C66.8599 399.085 66.1359 397.998 65.592 396.819C65.3173 396.231 65.0882 395.621 64.9003 394.997C64.7134 394.375 64.5633 393.73 64.4865 393.096L64.4854 393.086C64.4743 392.994 64.392 392.926 64.2975 392.932C64.2007 392.94 64.1284 393.024 64.1351 393.121C64.1862 393.806 64.3086 394.461 64.4721 395.116C64.6367 395.769 64.8446 396.411 65.1004 397.036C65.503 398.027 66.0313 398.972 66.6697 399.841C66.5307 399.843 66.3917 399.846 66.2538 399.844L65.7644 399.812C65.6009 399.802 65.4374 399.793 65.2773 399.763L64.7935 399.688C64.6311 399.665 64.4754 399.613 64.3164 399.579C63.995 399.513 63.6924 399.39 63.3821 399.288C62.7782 399.041 62.2021 398.722 61.6872 398.32C61.1756 397.921 60.7051 397.438 60.3737 396.892L60.3682 396.882C60.337 396.83 60.2703 396.814 60.218 396.844C60.1657 396.875 60.1468 396.942 60.178 396.995C60.5283 397.599 60.9988 398.094 61.5248 398.524C62.0531 398.953 62.6459 399.296 63.2698 399.565C63.589 399.679 63.9037 399.813 64.2352 399.888C64.3998 399.928 64.561 399.984 64.729 400.012L65.2295 400.1C65.3963 400.136 65.5653 400.148 65.7333 400.161L66.2393 400.205C66.4762 400.213 66.7131 400.212 66.95 400.21C67.029 400.311 67.109 400.411 67.1913 400.508C68.0699 401.551 69.1354 402.44 70.3132 403.14C71.3653 403.754 72.4997 404.222 73.6686 404.555L73.1793 424.951C72.6265 424.815 72.0793 424.648 71.5488 424.435C70.7369 424.098 69.9495 423.695 69.2088 423.209C68.4725 422.718 67.773 422.165 67.1157 421.562C66.5607 421.038 66.0358 420.479 65.5387 419.896C65.9168 419.484 66.2282 419.036 66.4951 418.555C66.811 417.979 67.0579 417.363 67.2024 416.724C67.3459 416.086 67.4316 415.431 67.3938 414.779C67.3993 414.452 67.3392 414.131 67.3037 413.807C67.2569 413.486 67.1669 413.172 67.1013 412.855C67.0946 412.823 67.0634 412.803 67.0312 412.808C66.9978 412.814 66.9767 412.845 66.9822 412.879L66.9834 412.886C67.0379 413.201 67.1157 413.512 67.1513 413.829C67.1758 414.147 67.2247 414.463 67.208 414.782C67.2236 415.418 67.119 416.052 66.9611 416.662C66.801 417.274 66.544 417.858 66.2226 418.399C65.9635 418.838 65.6488 419.255 65.3006 419.615C65.2962 419.61 65.2906 419.604 65.2862 419.599C64.1529 418.205 63.1797 416.675 62.3445 415.072C61.5159 413.468 60.7986 411.787 60.2681 410.064L60.2658 410.056C60.2369 409.964 60.1402 409.91 60.0456 409.936C59.95 409.963 59.8944 410.062 59.9211 410.158C60.3759 411.793 60.9843 413.365 61.6983 414.895C61.3413 414.773 60.9854 414.634 60.6384 414.482C60.1324 414.26 59.6408 414.007 59.1648 413.724C58.6866 413.447 58.2328 413.126 57.8013 412.78C57.3653 412.439 56.9771 412.042 56.6046 411.63L56.6023 411.628C56.5779 411.6 56.5356 411.597 56.5067 411.621C56.4778 411.645 56.4744 411.689 56.4989 411.718C56.8615 412.148 57.2441 412.566 57.6767 412.929C58.1049 413.295 58.5553 413.637 59.0336 413.936C59.5085 414.24 60.0022 414.515 60.5105 414.759C60.9643 414.975 61.4247 415.168 61.9063 415.334C62.7082 416.974 63.6513 418.551 64.7712 420.008C65.3385 420.738 65.9513 421.437 66.6097 422.092C67.277 422.74 67.9932 423.338 68.7573 423.878C69.5013 424.397 70.2999 424.837 71.1307 425.212C70.7481 425.29 70.361 425.357 69.9751 425.414C69.2122 425.524 68.4425 425.591 67.6718 425.615C66.9 425.645 66.1281 425.606 65.3618 425.527C64.5933 425.451 63.8392 425.282 63.0952 425.078L63.0896 425.077C63.0318 425.061 62.9729 425.094 62.9551 425.152C62.9373 425.211 62.9706 425.272 63.0285 425.29C63.7803 425.519 64.5455 425.713 65.3262 425.812C66.1047 425.916 66.891 425.977 67.6773 425.97C68.4637 425.967 69.2488 425.923 70.0307 425.831C70.6591 425.756 71.2797 425.658 71.9025 425.523C72.314 425.673 72.7333 425.8 73.157 425.91L72.6287 447.912C72.5965 447.9 72.5631 447.889 72.5309 447.876C71.9603 447.654 71.3909 447.421 70.8292 447.167C69.7037 446.666 68.6016 446.104 67.5261 445.497C66.3572 444.84 65.225 444.119 64.1284 443.344C64.1918 443.178 64.2485 443.012 64.303 442.841C64.3575 442.664 64.4042 442.485 64.4498 442.307C64.4865 442.126 64.531 441.946 64.561 441.764C64.6889 441.039 64.7245 440.297 64.6522 439.565C64.5822 438.835 64.4331 438.11 64.1618 437.431C64.0483 437.083 63.8726 436.763 63.7147 436.436C63.6424 436.268 63.5323 436.122 63.44 435.966L63.1519 435.505C63.1208 435.455 63.0552 435.438 63.004 435.467C62.9506 435.497 62.9328 435.565 62.9628 435.618L62.9684 435.628L63.2298 436.089C63.3132 436.244 63.4133 436.39 63.4767 436.556C63.6168 436.88 63.7736 437.196 63.8682 437.535C64.1028 438.198 64.2152 438.896 64.2541 439.593C64.2941 440.29 64.2318 440.991 64.0817 441.671C63.9838 442.127 63.8404 442.584 63.6624 443.012C62.8983 442.456 62.1543 441.873 61.4292 441.264C60.4838 440.462 59.5796 439.61 58.7099 438.721C57.8535 437.822 57.0305 436.887 56.2653 435.905C54.7339 433.941 53.4215 431.801 52.3349 429.546L52.3338 429.544C52.2816 429.436 52.1537 429.388 52.0424 429.436C51.929 429.485 51.8767 429.618 51.9257 429.732C52.93 432.06 54.1734 434.293 55.6548 436.363C55.7159 436.449 55.7793 436.532 55.8416 436.618C55.7304 436.608 55.6192 436.595 55.5091 436.581C55.1632 436.529 54.8162 436.465 54.4781 436.369C53.7986 436.185 53.1357 435.927 52.5073 435.598C52.3494 435.516 52.1992 435.423 52.0447 435.334L51.8144 435.201L51.5942 435.051L51.1538 434.75L50.7356 434.417L50.5266 434.251L50.3297 434.07L49.936 433.706C49.6813 433.456 49.4455 433.185 49.1986 432.924L49.1908 432.916C49.1497 432.874 49.0829 432.87 49.0373 432.91C48.9917 432.95 48.9873 433.02 49.0273 433.066C49.2687 433.339 49.4978 433.624 49.7491 433.889L50.1384 434.277L50.3341 434.47L50.5432 434.648L50.9614 435.005L51.4041 435.332L51.6265 435.495L51.8589 435.642C52.0157 435.738 52.1681 435.842 52.3283 435.931C52.9678 436.296 53.6484 436.591 54.3547 436.809C54.9697 436.994 55.5869 437.129 56.2464 437.166C56.8159 437.916 57.4164 438.642 58.037 439.352C58.8901 440.298 59.7809 441.212 60.7185 442.078C62.6025 443.798 64.6411 445.353 66.8165 446.699C67.4972 447.122 68.1912 447.524 68.8963 447.907C68.7072 447.981 68.5126 448.042 68.3202 448.111L67.7052 448.294C66.8777 448.517 66.0258 448.652 65.1683 448.693C64.739 448.727 64.3097 448.699 63.8793 448.685C63.6657 448.666 63.4522 448.636 63.2376 448.612C63.1308 448.597 63.0229 448.588 62.9161 448.57L62.6003 448.502C61.7461 448.354 60.9387 448.024 60.1457 447.666L60.1368 447.662C60.0845 447.639 60.0212 447.66 59.9945 447.711C59.9667 447.766 59.9867 447.833 60.0412 447.861C60.8253 448.275 61.6394 448.668 62.5135 448.875L62.8383 448.966C62.9473 448.991 63.0585 449.008 63.1686 449.029C63.3899 449.068 63.6101 449.114 63.8326 449.146C64.2797 449.189 64.7279 449.243 65.1783 449.237C66.078 449.248 66.9822 449.162 67.8675 448.98L68.5282 448.826C68.745 448.762 68.9664 448.71 69.181 448.637C69.4079 448.566 69.6281 448.491 69.8494 448.406C69.9562 448.46 70.0607 448.517 70.1686 448.569C70.7414 448.858 71.3253 449.126 71.9147 449.385C72.136 449.481 72.3607 449.573 72.5854 449.664V449.667L70.7247 495H77.9327L76.0198 439.865C76.7794 439.659 77.5301 439.421 78.2697 439.149C78.7323 439.364 79.1994 439.53 79.6832 439.672C80.3461 439.862 81.0223 440.002 81.7063 440.066C82.3892 440.13 83.0765 440.153 83.7582 440.092C84.0997 440.077 84.4367 440.018 84.7748 439.971C85.1118 439.921 85.4421 439.833 85.7757 439.766C85.8336 439.755 85.8725 439.699 85.8636 439.641C85.8547 439.581 85.798 439.539 85.7379 439.548L85.7268 439.55C85.3965 439.601 85.0695 439.672 84.7381 439.707C84.4055 439.737 84.0752 439.779 83.7427 439.778C83.0776 439.809 82.4136 439.755 81.7586 439.663C81.1024 439.572 80.4584 439.406 79.8345 439.197C79.5531 439.101 79.2717 438.99 78.997 438.87C79.6554 438.604 80.3027 438.314 80.9356 437.991L81.2892 437.814L81.634 437.618L82.3224 437.225C82.764 436.934 83.2211 436.667 83.6426 436.347C84.5079 435.74 85.3131 435.049 86.0638 434.308C87.5741 432.83 88.8164 431.095 89.7729 429.227C89.8763 429.024 89.9742 428.819 90.0709 428.612L90.3234 428.64L90.5848 428.669C90.6726 428.671 90.7594 428.667 90.8472 428.667L91.3722 428.656L91.8916 428.583C92.5767 428.457 93.2495 428.248 93.859 427.918C94.4729 427.599 95.0446 427.205 95.5651 426.755C96.0845 426.303 96.5616 425.811 96.9764 425.252C97.0142 425.202 97.0053 425.134 96.9586 425.097Z" fill="#121212"/>
<path d="M-1.01432 480.518C0.405384 477.303 3.02994 475.584 5.67426 475.763C5.67684 475.757 5.67855 475.751 5.68027 475.746C7.70154 471.168 12.1652 469.61 15.65 472.265C17.2097 473.454 18.3055 475.287 18.8623 477.359C21.1096 475.346 24.1226 475.063 26.6329 476.975C26.956 477.221 27.2525 477.502 27.5352 477.8C28.4255 473.819 31.2263 470.912 34.5443 470.921C35.6409 470.924 36.6756 471.253 37.608 471.825C38.7493 468.479 41.3051 466.149 44.2768 466.156C46.9598 466.162 49.2939 468.076 50.5572 470.913C51.4278 470.433 52.3851 470.169 53.388 470.172C53.6974 470.172 53.9999 470.208 54.299 470.258C54.299 470.257 54.299 470.257 54.299 470.257C55.7144 467.037 58.3363 465.312 60.9807 465.484C60.9832 465.478 60.985 465.473 60.9875 465.467C63.0019 460.885 67.463 459.314 70.9512 461.959C72.5127 463.144 73.611 464.975 74.1713 467.045C76.4152 465.025 79.4282 464.735 81.941 466.641C82.265 466.886 82.5606 467.167 82.8442 467.464C83.7285 463.48 86.5241 460.566 89.843 460.566C90.9387 460.566 91.9751 460.894 92.9084 461.463C94.0454 458.113 96.5969 455.775 99.5686 455.775C102.252 455.775 104.589 457.683 105.857 460.516C106.727 460.034 107.683 459.768 108.687 459.768C112.344 459.768 115.364 463.307 115.891 467.919C117.192 466.334 118.929 465.357 120.844 465.357C121.064 465.357 121.281 465.375 121.497 465.401C122.643 462.081 125.183 459.768 128.138 459.768C130.769 459.768 133.066 461.604 134.347 464.348C133.965 462.089 134.192 459.645 135.143 457.482C136.557 454.263 139.179 452.538 141.824 452.71C141.826 452.704 141.828 452.699 141.83 452.693C143.845 448.11 148.306 446.54 151.794 449.185C153.356 450.37 154.454 452.201 155.014 454.27C157.258 452.252 160.271 451.96 162.784 453.866C163.107 454.111 163.404 454.392 163.687 454.689C164.571 450.705 167.367 447.791 170.686 447.791C171.783 447.791 172.818 448.117 173.751 448.688C174.887 445.338 177.439 443 180.411 443C183.094 443 185.431 444.907 186.698 447.742C187.569 447.259 188.525 446.993 189.529 446.993C193.186 446.993 196.206 450.533 196.733 455.144C198.034 453.559 199.771 452.582 201.686 452.582C201.906 452.582 202.123 452.6 202.34 452.626C203.485 449.306 206.025 446.993 208.98 446.993C212.071 446.993 214.708 449.523 215.769 453.09C216.501 452.766 217.283 452.582 218.098 452.582C220.893 452.582 223.317 454.648 224.542 457.679C226.654 456.31 229.23 456.306 231.422 457.969C232.983 459.153 234.081 460.984 234.642 463.053C236.886 461.034 239.899 460.743 242.412 462.649C242.735 462.894 243.031 463.175 243.315 463.472C244.199 459.488 246.995 456.574 250.314 456.574C251.41 456.574 252.446 456.901 253.379 457.471C254.516 454.121 257.068 451.783 260.039 451.783C262.721 451.783 265.06 453.691 266.327 456.525C267.197 456.043 268.153 455.775 269.157 455.775C272.815 455.775 275.834 459.315 276.362 463.927C277.663 462.342 279.4 461.364 281.314 461.364C281.535 461.364 281.752 461.382 281.967 461.408C283.114 458.089 285.652 455.775 288.608 455.775C291.699 455.775 294.335 458.305 295.397 461.872C296.129 461.548 296.91 461.364 297.726 461.364C301.755 461.364 305.02 465.654 305.02 470.947C305.02 471.035 305.012 471.122 305.01 471.209C305.83 471.396 306.64 471.762 307.402 472.341C308.964 473.525 310.062 475.356 310.623 477.426C312.866 475.406 315.879 475.115 318.392 477.02C318.715 477.265 319.012 477.546 319.296 477.843C320.18 473.859 322.975 470.946 326.294 470.946C327.391 470.946 328.426 471.272 329.36 471.842C330.497 468.492 333.048 466.154 336.02 466.154C338.702 466.154 341.04 468.062 342.307 470.896C343.178 470.414 344.133 470.146 345.137 470.146C348.795 470.146 351.814 473.687 352.341 478.297C353.642 476.712 355.379 475.736 357.294 475.736C357.515 475.736 357.731 475.754 357.947 475.779C359.093 472.46 361.632 470.146 364.587 470.146C367.679 470.146 370.314 472.676 371.377 476.243C372.109 475.919 372.89 475.736 373.706 475.736C377.734 475.736 381 480.026 381 485.318C381 490.61 377.734 494.899 373.706 494.899H333.588H298.133C297.436 495.035 296.725 495.032 296.017 494.899H82.9319C82.6001 494.959 82.2633 495.001 81.9195 495L6.34715 494.802C4.77534 495.105 3.11759 494.745 1.63602 493.616C-1.84878 490.959 -3.03558 485.096 -1.01432 480.518Z" fill="#121212"/>
<path d="M380.014 487.765C378.594 486.158 375.97 485.298 373.325 485.387C373.323 485.385 373.321 485.382 373.318 485.378C371.297 483.09 366.833 482.31 363.349 483.638C361.789 484.232 360.693 485.149 360.136 486.185C357.889 485.178 354.876 485.037 352.366 485.993C352.043 486.115 351.746 486.257 351.464 486.406C350.573 484.415 347.772 482.961 344.454 482.966C343.359 482.967 342.323 483.132 341.391 483.418C340.249 481.745 337.694 480.579 334.722 480.583C332.04 480.587 329.705 481.543 328.442 482.961C327.571 482.722 326.615 482.589 325.611 482.591C325.301 482.591 324.999 482.609 324.7 482.634C324.7 482.634 324.7 482.633 324.699 482.633C323.284 481.023 320.662 480.161 318.018 480.246C318.016 480.242 318.014 480.24 318.011 480.237C315.997 477.944 311.536 477.159 308.047 478.482C306.485 479.075 305.387 479.991 304.827 481.025C302.583 480.016 299.57 479.869 297.057 480.823C296.733 480.945 296.437 481.086 296.154 481.233C295.27 479.241 292.474 477.784 289.155 477.784C288.059 477.784 287.023 477.948 286.091 478.233C284.954 476.559 282.402 475.389 279.43 475.389C276.747 475.389 274.41 476.342 273.143 477.759C272.273 477.518 271.316 477.385 270.312 477.385C266.655 477.385 263.635 479.155 263.108 481.461C261.807 480.668 260.07 480.179 258.156 480.179C257.935 480.179 257.717 480.189 257.502 480.201C256.356 478.542 253.817 477.385 250.861 477.385C248.231 477.385 245.933 478.303 244.651 479.675C245.034 478.545 244.806 477.323 243.855 476.242C242.441 474.631 239.819 473.769 237.175 473.854C237.172 473.851 237.17 473.849 237.168 473.846C235.153 471.554 230.692 470.769 227.204 472.092C225.643 472.685 224.544 473.6 223.984 474.635C221.74 473.624 218.727 473.479 216.214 474.432C215.89 474.555 215.594 474.696 215.311 474.844C214.427 472.852 211.631 471.395 208.312 471.395C207.216 471.395 206.18 471.559 205.247 471.844C204.11 470.17 201.559 469 198.587 469C195.904 469 193.566 469.953 192.3 471.37C191.429 471.129 190.473 470.996 189.469 470.996C185.811 470.996 182.792 472.766 182.265 475.071C180.964 474.278 179.227 473.79 177.313 473.79C177.092 473.79 176.875 473.8 176.659 473.812C175.512 472.153 172.974 470.996 170.018 470.996C166.927 470.996 164.292 472.261 163.229 474.044C162.497 473.882 161.715 473.79 160.9 473.79C158.107 473.79 155.681 474.824 154.457 476.339C152.344 475.654 149.769 475.652 147.577 476.483C146.015 477.076 144.918 477.991 144.357 479.026C142.113 478.017 139.1 477.871 136.587 478.823C136.264 478.946 135.967 479.086 135.684 479.235C134.799 477.243 132.004 475.786 128.685 475.786C127.588 475.786 126.553 475.95 125.62 476.235C124.483 474.56 121.932 473.391 118.96 473.391C116.277 473.391 113.94 474.344 112.673 475.761C111.802 475.521 110.846 475.387 109.842 475.387C106.185 475.387 103.165 477.157 102.638 479.462C101.337 478.669 99.6001 478.181 97.6854 478.181C97.4645 478.181 97.2471 478.19 97.0314 478.203C95.8858 476.544 93.3464 475.387 90.391 475.387C87.2998 475.387 84.6641 476.652 83.6019 478.435C82.8697 478.273 82.0885 478.181 81.2738 478.181C77.2451 478.181 73.9794 480.326 73.9794 482.973C73.9794 483.016 73.988 483.06 73.9897 483.103C73.1699 483.197 72.3595 483.38 71.5972 483.67C70.0357 484.261 68.9374 485.178 68.3771 486.213C66.1333 485.203 63.1203 485.058 60.6075 486.01C60.2835 486.132 59.987 486.273 59.7043 486.422C58.82 484.43 56.0244 482.973 52.7055 482.973C51.6098 482.973 50.5734 483.135 49.6401 483.42C48.5031 481.746 45.9516 480.576 42.9799 480.576C40.2978 480.576 37.9594 481.53 36.6927 482.947C35.8221 482.706 34.8665 482.572 33.8628 482.572C30.2052 482.572 27.1854 484.343 26.6586 486.649C25.3575 485.855 23.6207 485.367 21.706 485.367C21.4851 485.367 21.2685 485.376 21.0528 485.389C19.9073 483.728 17.3678 482.572 14.4124 482.572C11.3212 482.572 8.68552 483.837 7.62333 485.621C6.89113 485.458 6.10996 485.367 5.29441 485.367C1.26564 485.367 -2 487.511 -2 490.158C-2 492.804 1.26564 494.95 5.29441 494.95H45.4119H80.8673C81.5634 495.017 82.2759 495.016 82.984 494.95H296.068C296.4 494.98 296.736 495 297.08 494.999L372.652 494.901C374.225 495.052 375.882 494.872 377.363 494.307C380.849 492.986 382.036 490.054 380.014 487.765Z" fill="#121212"/>
<defs>
<filter id="filter0_d_5_130" x="226.661" y="210.815" width="95.2839" height="306.998" filterUnits="userSpaceOnUse" color-interpolation-filters="sRGB">
<feFlood flood-opacity="0" result="BackgroundImageFix"/>
<feColorMatrix in="SourceAlpha" type="matrix" values="0 0 0 0 0 0 0 0 0 0 0 0 0 0 0 0 0 0 127 0" result="hardAlpha"/>
<feOffset dx="2"/>
<feGaussianBlur stdDeviation="6"/>
<feComposite in2="hardAlpha" operator="out"/>
<feColorMatrix type="matrix" values="0 0 0 0 0 0 0 0 0 0 0 0 0 0 0 0 0 0 0.17 0"/>
<feBlend mode="normal" in2="BackgroundImageFix" result="effect1_dropShadow_5_130"/>
<feBlend mode="normal" in="SourceGraphic" in2="effect1_dropShadow_5_130" result="shape"/>
</filter>
<filter id="filter1_d_5_130" x="78.7855" y="321.28" width="125.715" height="194.831" filterUnits="userSpaceOnUse" color-interpolation-filters="sRGB">
<feFlood flood-opacity="0" result="BackgroundImageFix"/>
<feColorMatrix in="SourceAlpha" type="matrix" values="0 0 0 0 0 0 0 0 0 0 0 0 0 0 0 0 0 0 127 0" result="hardAlpha"/>
<feOffset dx="2"/>
<feGaussianBlur stdDeviation="6"/>
<feComposite in2="hardAlpha" operator="out"/>
<feColorMatrix type="matrix" values="0 0 0 0 0 0 0 0 0 0 0 0 0 0 0 0 0 0 0.17 0"/>
<feBlend mode="normal" in2="BackgroundImageFix" result="effect1_dropShadow_5_130"/>
<feBlend mode="normal" in="SourceGraphic" in2="effect1_dropShadow_5_130" result="shape"/>
</filter>
<filter id="filter2_d_5_130" x="54.2181" y="287.597" width="97.5842" height="228.523" filterUnits="userSpaceOnUse" color-interpolation-filters="sRGB">
<feFlood flood-opacity="0" result="BackgroundImageFix"/>
<feColorMatrix in="SourceAlpha" type="matrix" values="0 0 0 0 0 0 0 0 0 0 0 0 0 0 0 0 0 0 127 0" result="hardAlpha"/>
<feOffset dx="2"/>
<feGaussianBlur stdDeviation="6"/>
<feComposite in2="hardAlpha" operator="out"/>
<feColorMatrix type="matrix" values="0 0 0 0 0 0 0 0 0 0 0 0 0 0 0 0 0 0 0.17 0"/>
<feBlend mode="normal" in2="BackgroundImageFix" result="effect1_dropShadow_5_130"/>
<feBlend mode="normal" in="SourceGraphic" in2="effect1_dropShadow_5_130" result="shape"/>
</filter>
<filter id="filter3_d_5_130" x="48" y="366" width="63" height="96" filterUnits="userSpaceOnUse" color-interpolation-filters="sRGB">
<feFlood flood-opacity="0" result="BackgroundImageFix"/>
<feColorMatrix in="SourceAlpha" type="matrix" values="0 0 0 0 0 0 0 0 0 0 0 0 0 0 0 0 0 0 127 0" result="hardAlpha"/>
<feOffset dx="2"/>
<feGaussianBlur stdDeviation="1"/>
<feComposite in2="hardAlpha" operator="out"/>
<feColorMatrix type="matrix" values="0 0 0 0 0 0 0 0 0 0 0 0 0 0 0 0 0 0 0.08 0"/>
<feBlend mode="normal" in2="BackgroundImageFix" result="effect1_dropShadow_5_130"/>
<feBlend mode="normal" in="SourceGraphic" in2="effect1_dropShadow_5_130" result="shape"/>
</filter>
</defs>
</svg>
